PathFileType	4	(X/Y/Z)	c:/Users/goper/Files/vsCode/490R/osim_files/C03/C03_SSW_05.trc
DataRate	CameraRate	NumFrames	NumMarkers	Units                	OrigDataRate	OrigDataStartFrame	OrigNumFrames
250.00	250.00	11	36	mm	250.0	2045	2726
                Frame#	Time	LPSIS			LASIS			LTH1			LTH2			LTH3			LTH4			LLFE			LMFE			LSH1			LSH2			LSH3			LSH4			LLMAL			LMMAL			LCAL			LMTP5			LTOE			LMTP1			RPSIS			RASIS			RTH1			RTH2			RTH3			RTH4			RLFE			RMFE			RSH1			RSH2			RSH3			RSH4			RLMAL			RMMAL			RCAL			RMTP1			RTOE			RMTP5		
		X1	Y1	Z1	X2	Y2	Z2	X3	Y3	Z3	X4	Y4	Z4	X5	Y5	Z5	X6	Y6	Z6	X7	Y7	Z7	X8	Y8	Z8	X9	Y9	Z9	X10	Y10	Z10	X11	Y11	Z11	X12	Y12	Z12	X13	Y13	Z13	X14	Y14	Z14	X15	Y15	Z15	X16	Y16	Z16	X17	Y17	Z17	X18	Y18	Z18	X19	Y19	Z19	X20	Y20	Z20	X21	Y21	Z21	X22	Y22	Z22	X23	Y23	Z23	X24	Y24	Z24	X25	Y25	Z25	X26	Y26	Z26	X27	Y27	Z27	X28	Y28	Z28	X29	Y29	Z29	X30	Y30	Z30	X31	Y31	Z31	X32	Y32	Z32	X33	Y33	Z33	X34	Y34	Z34	X35	Y35	Z35	X36	Y36	Z36

2045	8.17600	0.00000	0.00000	0.00000	-3895.67041	986.28467	305.38318	-3751.86816	640.96259	348.26257	0.00000	0.00000	0.00000	-3825.60181	634.52716	336.09537	-3814.04565	574.60992	325.91635	-3757.18652	489.94672	317.19287	-3748.11206	492.46402	206.50117	-3685.56494	316.98062	320.43753	0.00000	0.00000	0.00000	0.00000	0.00000	0.00000	0.00000	0.00000	0.00000	-3704.90845	105.73315	277.85416	-3725.43921	122.67451	195.60608	0.00000	0.00000	0.00000	0.00000	0.00000	0.00000	0.00000	0.00000	0.00000	0.00000	0.00000	0.00000	0.00000	0.00000	0.00000	-3889.18677	998.19476	102.65577	0.00000	0.00000	0.00000	0.00000	0.00000	0.00000	-3952.94653	642.03851	55.67703	-3989.51807	591.95001	61.65077	0.00000	0.00000	0.00000	-4011.97144	542.59253	190.59177	-3887.91211	360.62915	58.69906	0.00000	0.00000	0.00000	0.00000	0.00000	0.00000	0.00000	0.00000	0.00000	0.00000	0.00000	0.00000	0.00000	0.00000	0.00000	-3766.37012	163.75529	145.78951	-3874.13330	330.78683	64.85458	0.00000	0.00000	0.00000	0.00000	0.00000	0.00000
2046	8.18000	0.00000	0.00000	0.00000	-3900.02661	985.86456	305.50058	-3754.34204	641.07135	347.88751	-3755.66333	580.79315	339.52536	-3826.95410	634.43488	334.97412	-3816.38159	574.53210	325.65335	-3757.40479	490.27628	317.38916	-3750.31226	492.58920	206.13379	-3686.56323	317.39554	320.05258	0.00000	0.00000	0.00000	0.00000	0.00000	0.00000	0.00000	0.00000	0.00000	-3705.03906	105.77701	277.73172	-3725.70728	122.73895	195.34503	0.00000	0.00000	0.00000	0.00000	0.00000	0.00000	-3884.66821	328.33609	65.01096	0.00000	0.00000	0.00000	-3717.39526	1036.66357	161.72261	-3894.38330	998.22803	102.84106	0.00000	0.00000	0.00000	0.00000	0.00000	0.00000	-3958.80566	642.20770	56.12962	-3995.41382	592.12177	62.24200	0.00000	0.00000	0.00000	-4017.42480	543.19867	191.07961	0.00000	0.00000	0.00000	-3898.71973	358.36252	58.62986	-3951.77515	357.61276	50.51145	0.00000	0.00000	0.00000	0.00000	0.00000	0.00000	-3862.19165	173.47542	83.64454	-3782.11792	157.36745	145.48651	0.00000	0.00000	0.00000	-3934.82520	145.97952	44.01397	0.00000	0.00000	0.00000
2047	8.18400	0.00000	0.00000	0.00000	-3904.37622	985.40259	305.58148	-3757.03394	641.27344	347.47675	0.00000	0.00000	0.00000	-3830.29126	634.22388	335.21777	-3818.69312	574.41748	325.29279	-3761.07324	490.18600	316.48657	-3752.67383	492.76483	205.75856	-3687.53442	317.80362	319.56372	0.00000	0.00000	0.00000	0.00000	0.00000	0.00000	0.00000	0.00000	0.00000	0.00000	0.00000	0.00000	-3726.01831	122.82512	195.14230	0.00000	0.00000	0.00000	-4171.19678	283.85883	147.19424	0.00000	0.00000	0.00000	0.00000	0.00000	0.00000	-3722.08838	1036.78711	161.34320	-3899.61035	998.26257	102.98167	0.00000	0.00000	0.00000	0.00000	0.00000	0.00000	-3964.50146	642.28015	56.63374	-4001.21777	592.22681	62.83144	0.00000	0.00000	0.00000	-4022.91357	543.81000	191.55592	0.00000	0.00000	0.00000	-3909.49121	356.05408	58.66024	0.00000	0.00000	0.00000	-3962.04248	354.80850	50.57514	0.00000	0.00000	0.00000	-3878.27588	169.31047	82.99305	-3798.71240	151.41537	145.97168	0.00000	0.00000	0.00000	0.00000	0.00000	0.00000	-3895.04492	325.74710	65.15195
2048	8.18800	0.00000	0.00000	0.00000	-3908.77295	984.92352	305.68274	-3759.60327	641.35443	347.06680	-3760.42188	580.86176	338.73267	-3832.17944	634.14606	334.31607	-3821.10400	574.30878	324.95615	-3762.97168	490.28976	316.02859	-3754.76270	492.79865	205.42223	-3688.72876	318.34836	319.13226	0.00000	0.00000	0.00000	0.00000	0.00000	0.00000	0.00000	0.00000	0.00000	0.00000	0.00000	0.00000	-3726.28760	122.94080	194.90240	-3781.62842	167.47498	276.84851	0.00000	0.00000	0.00000	-3905.16333	323.09366	65.14060	0.00000	0.00000	0.00000	0.00000	0.00000	0.00000	-3904.77661	998.21155	103.14272	0.00000	0.00000	0.00000	0.00000	0.00000	0.00000	-3970.16357	642.26013	57.09015	0.00000	0.00000	0.00000	0.00000	0.00000	0.00000	-4028.11230	544.09784	191.92912	0.00000	0.00000	0.00000	-3920.56958	353.89499	58.70522	0.00000	0.00000	0.00000	0.00000	0.00000	0.00000	0.00000	0.00000	0.00000	0.00000	0.00000	0.00000	-3815.59277	146.11436	146.70682	0.00000	0.00000	0.00000	-4183.17969	281.50308	147.11064	0.00000	0.00000	0.00000
2049	8.19200	0.00000	0.00000	0.00000	-3913.11133	984.41321	305.76944	-3762.27246	641.48193	346.64142	-3763.00562	580.95624	338.33524	-3834.78198	633.95984	333.90640	-3823.44409	574.16479	324.51700	-3764.81006	490.24130	315.68658	-3756.93286	492.87421	204.98573	-3689.81006	318.83740	318.66080	0.00000	0.00000	0.00000	0.00000	0.00000	0.00000	0.00000	0.00000	0.00000	0.00000	0.00000	0.00000	-3726.52832	123.00893	194.60080	-3791.61548	170.71812	276.42212	-3912.62524	36.24237	211.02321	0.00000	0.00000	0.00000	0.00000	0.00000	0.00000	0.00000	0.00000	0.00000	-3901.18848	993.55750	101.76946	0.00000	0.00000	0.00000	0.00000	0.00000	0.00000	-3975.67749	642.20001	57.56985	0.00000	0.00000	0.00000	0.00000	0.00000	0.00000	-4033.49780	544.40045	192.30556	-3953.77783	354.51422	62.59514	0.00000	0.00000	0.00000	0.00000	0.00000	0.00000	0.00000	0.00000	0.00000	0.00000	0.00000	0.00000	0.00000	0.00000	0.00000	-3831.81958	139.70695	146.28407	-3737.11133	-16.03506	281.43497	0.00000	0.00000	0.00000	0.00000	0.00000	0.00000
2050	8.19600	0.00000	0.00000	0.00000	-3917.47363	983.90881	305.85938	-3764.86011	641.52649	346.24316	-3765.42603	580.98163	337.89856	-3837.44189	633.78967	333.50958	-3825.82666	574.03632	324.10556	-3766.69971	490.23117	315.30896	-3758.99243	492.97290	204.63255	-3690.81909	319.25851	318.19632	0.00000	0.00000	0.00000	0.00000	0.00000	0.00000	0.00000	0.00000	0.00000	1887.72717	2043.13513	333.13196	0.00000	0.00000	0.00000	0.00000	0.00000	0.00000	0.00000	0.00000	0.00000	-3949.16260	358.24237	60.17101	0.00000	0.00000	0.00000	0.00000	0.00000	0.00000	-3907.30249	996.03491	100.31284	0.00000	0.00000	0.00000	0.00000	0.00000	0.00000	-3981.24243	642.10022	57.97978	0.00000	0.00000	0.00000	0.00000	0.00000	0.00000	-4038.57227	544.50555	192.67490	0.00000	0.00000	0.00000	0.00000	0.00000	0.00000	0.00000	0.00000	0.00000	-3838.94165	64.13866	186.24106	-3823.34302	190.22951	86.76501	0.00000	0.00000	0.00000	-3848.65015	133.88937	146.46111	0.00000	0.00000	0.00000	-3941.96313	334.38562	64.81609	0.00000	0.00000	0.00000
2051	8.20000	0.00000	0.00000	0.00000	-3921.83911	983.34875	305.90573	-3767.71265	641.63800	345.84396	0.00000	0.00000	0.00000	-3840.09766	633.56427	333.04068	-3828.23071	573.86102	323.59305	-3768.61694	490.28436	314.90012	-3761.16431	493.10794	204.28297	-3691.82007	319.66724	317.69580	0.00000	0.00000	0.00000	0.00000	0.00000	0.00000	0.00000	0.00000	0.00000	0.00000	0.00000	0.00000	-3838.90894	64.03033	186.25641	-3727.07178	123.20638	194.05598	-3794.75293	311.36127	312.11566	0.00000	0.00000	0.00000	0.00000	0.00000	0.00000	0.00000	0.00000	0.00000	-3910.72803	993.13831	101.50462	0.00000	0.00000	0.00000	0.00000	0.00000	0.00000	-3986.59888	641.89960	58.39586	0.00000	0.00000	0.00000	0.00000	0.00000	0.00000	-4043.83057	544.61108	193.01895	-3958.68115	356.10989	60.19034	0.00000	0.00000	0.00000	0.00000	0.00000	0.00000	0.00000	0.00000	0.00000	-3883.49146	171.17375	83.59244	0.00000	0.00000	0.00000	-3871.49829	128.35640	151.53842	-3953.59619	332.05069	64.76569	0.00000	0.00000	0.00000	0.00000	0.00000	0.00000
2052	8.20400	0.00000	0.00000	0.00000	-3926.27588	982.73505	305.96478	-3770.52588	641.58478	345.48685	0.00000	0.00000	0.00000	-3842.79395	633.33478	332.60437	-3830.70532	573.69012	323.12247	-3770.59521	490.34073	314.43365	-3763.33984	493.18436	203.95468	-3692.84351	320.06763	317.17267	0.00000	0.00000	0.00000	0.00000	0.00000	0.00000	0.00000	0.00000	0.00000	-3858.92627	399.32874	320.31528	0.00000	0.00000	0.00000	0.00000	0.00000	0.00000	0.00000	0.00000	0.00000	-3984.38086	347.41830	62.77718	0.00000	0.00000	0.00000	0.00000	0.00000	0.00000	-3915.60156	992.86169	101.35567	0.00000	0.00000	0.00000	0.00000	0.00000	0.00000	-3991.96533	641.59668	58.75858	0.00000	0.00000	0.00000	0.00000	0.00000	0.00000	-4048.87500	544.46210	193.36768	0.00000	0.00000	0.00000	-3796.03320	311.71747	311.75424	0.00000	0.00000	0.00000	0.00000	0.00000	0.00000	0.00000	0.00000	0.00000	0.00000	0.00000	0.00000	-3884.19604	124.24162	150.63216	0.00000	0.00000	0.00000	-3727.36646	123.27180	193.67902	-3708.94067	108.59859	274.15387
2053	8.20800	0.00000	0.00000	0.00000	-3930.82031	982.19098	306.02289	-3773.54785	641.50104	345.13892	0.00000	0.00000	0.00000	-3845.55835	633.03589	332.08917	-3833.09790	573.42828	322.59558	-3772.62744	490.39719	314.00842	-3765.38354	493.19843	203.61250	-3693.99097	320.48953	316.70731	0.00000	0.00000	0.00000	0.00000	0.00000	0.00000	0.00000	0.00000	0.00000	0.00000	0.00000	0.00000	0.00000	0.00000	0.00000	-3916.35669	999.17133	220.12328	0.00000	0.00000	0.00000	-3994.37695	345.08820	62.75102	0.00000	0.00000	0.00000	0.00000	0.00000	0.00000	-3922.34546	995.41541	100.37663	-3927.89453	601.23151	52.32246	0.00000	0.00000	0.00000	0.00000	0.00000	0.00000	0.00000	0.00000	0.00000	0.00000	0.00000	0.00000	-4053.89038	544.18048	193.64549	-3865.22974	401.61002	319.88016	0.00000	0.00000	0.00000	0.00000	0.00000	0.00000	0.00000	0.00000	0.00000	-3839.06982	63.86390	186.27769	0.00000	0.00000	0.00000	-3897.23120	120.46663	149.66478	0.00000	0.00000	0.00000	0.00000	0.00000	0.00000	-3727.62354	123.27085	193.28810
2054	8.21200	0.00000	0.00000	0.00000	-3935.98193	981.89960	306.03436	-3776.60352	641.20795	344.85080	0.00000	0.00000	0.00000	-3848.33569	632.72858	331.63217	-3835.60889	573.16846	322.09824	-3777.10327	492.29584	314.42749	-3767.37231	493.18491	203.29022	-3695.17310	320.90784	316.18301	0.00000	0.00000	0.00000	0.00000	0.00000	0.00000	0.00000	0.00000	0.00000	-3871.28711	403.67941	319.40579	0.00000	0.00000	0.00000	0.00000	0.00000	0.00000	0.00000	0.00000	0.00000	0.00000	0.00000	0.00000	-3986.69507	349.85556	60.23801	0.00000	0.00000	0.00000	-3927.50073	995.17511	100.38858	-3929.99268	599.69562	52.44009	0.00000	0.00000	0.00000	0.00000	0.00000	0.00000	0.00000	0.00000	0.00000	0.00000	0.00000	0.00000	-4059.00977	543.86987	193.92989	0.00000	0.00000	0.00000	-3798.51025	312.26312	310.99039	0.00000	0.00000	0.00000	0.00000	0.00000	0.00000	0.00000	0.00000	0.00000	-3924.04370	163.71277	77.42686	-3909.92188	116.62634	148.84239	0.00000	0.00000	0.00000	-4214.00488	233.23410	140.73410	0.00000	0.00000	0.00000
2055	8.21600	0.00000	0.00000	0.00000	-3941.81128	982.00140	306.11249	-3779.62231	640.84027	344.51764	0.00000	0.00000	0.00000	-3851.15356	632.39636	331.13702	-3838.11499	572.86475	321.61307	-3776.72778	490.29642	313.14908	-3769.72168	493.30981	203.00732	-3696.35986	321.31088	315.70178	0.00000	0.00000	0.00000	0.00000	0.00000	0.00000	0.00000	0.00000	0.00000	0.00000	0.00000	0.00000	-4079.48560	277.62137	93.48419	-3994.42627	350.18082	57.93561	0.00000	0.00000	0.00000	-3619.70410	462.42352	191.32436	0.00000	0.00000	0.00000	0.00000	0.00000	0.00000	-3930.09790	991.78741	100.81364	0.00000	0.00000	0.00000	-3877.14893	405.60840	318.96683	0.00000	0.00000	0.00000	0.00000	0.00000	0.00000	0.00000	0.00000	0.00000	-4063.82764	543.24664	194.15826	0.00000	0.00000	0.00000	-3799.56812	312.53403	310.66904	0.00000	0.00000	0.00000	0.00000	0.00000	0.00000	-3820.67603	194.49329	275.57339	0.00000	0.00000	0.00000	0.00000	0.00000	0.00000	-3839.27686	63.72030	186.31715	0.00000	0.00000	0.00000	-3728.27515	123.41354	192.59291
